<svg width="30" height="28" viewBox="0 0 30 28" fill="none" xmlns="http://www.w3.org/2000/svg">
<g id="InstagramLogo">
<path id="Vector" d="M15.2975 17.9317C17.4544 17.9317 19.2029 16.3012 19.2029 14.2899C19.2029 12.2787 17.4544 10.6482 15.2975 10.6482C13.1406 10.6482 11.3921 12.2787 11.3921 14.2899C11.3921 16.3012 13.1406 17.9317 15.2975 17.9317Z" stroke="#FFCD9E" stroke-width="3" stroke-linecap="round" stroke-linejoin="round"/>
<path id="Vector_2" d="M20.811 4.00732H9.78402C6.73899 4.00732 4.27051 6.30915 4.27051 9.1486V19.4312C4.27051 22.2706 6.73899 24.5724 9.78402 24.5724H20.811C23.8561 24.5724 26.3246 22.2706 26.3246 19.4312V9.1486C26.3246 6.30915 23.8561 4.00732 20.811 4.00732Z" stroke="#FFCD9E" stroke-width="3" stroke-linecap="round" stroke-linejoin="round"/>
<path id="Vector_3" d="M21.2705 10.434C22.2855 10.434 23.1083 9.66671 23.1083 8.72023C23.1083 7.77375 22.2855 7.00647 21.2705 7.00647C20.2554 7.00647 19.4326 7.77375 19.4326 8.72023C19.4326 9.66671 20.2554 10.434 21.2705 10.434Z" fill="#FFCD9E"/>
</g>
</svg>
